PathFileType	4	(X/Y/Z)	C:\Users\wzy\Desktop\s001_20220513_walk_1_markers.trc
DataRate	CameraRate	NumFrames	NumMarkers	Units	OrigDataRate	OrigDataStartFrame	OrigNumFrames
250.000000	250.000000	4	99	mm	250.000000	808	1078
Frame#	Time	QTMMod_head_top			QTMMod_head_l_ant			QTMMod_head_r_ant			QTMMod_head_r_post			QTMMod_head_l_post			QTMMod_trunk_l_acro			QTMMod_trunk_r_acro			QTMMod_trunk_manu			QTMMod_trunk_xyph			QTMMod_trunk_abdl			QTMMod_trunk_c7			QTMMod_trunk_t8			QTMMod_trunk_t12			QTMMod_l_sho_ant			QTMMod_l_sho_post			QTMMod_l_bicep			QTMMod_l_tricep			QTMMod_l_elb_lat			QTMMod_l_elb_med			QTMMod_l_farm_ant			QTMMod_l_farm_post			QTMMod_l_wri_lat			QTMMod_l_wri_med			QTMMod_l_hand			QTMMod_l_thmb			QTMMod_r_sho_ant			QTMMod_r_sho_post			QTMMod_r_bicep			QTMMod_r_tricep			QTMMod_r_elb_lat			QTMMod_r_elb_med			QTMMod_r_farm_ant			QTMMod_r_farm_post			QTMMod_r_wri_lat			QTMMod_r_wri_med			QTMMod_r_hand			QTMMod_r_thmb			QTMMod_pelvis_l_asis			QTMMod_pelvis_r_asis			QTMMod_pelvis_r			QTMMod_pelvis_r_ilcr			QTMMod_pelvis_r_psis			QTMMod_pelvis_sac			QTMMod_pelvis_l_psis			QTMMod_pelvis_l_ilcr			QTMMod_pelvis_l			QTMMod_l_hip_grtr			QTMMod_l_thigh_antprox			QTMMod_l_thigh_postprox			QTMMod_l_thigh_postdist			QTMMod_l_thigh_antdist			QTMMod_l_thigh_ant			QTMMod_l_thigh_med			QTMMod_l_thigh_pos			QTMMod_l_knee_lat			QTMMod_l_knee_med			QTMMod_l_shank_antprox			QTMMod_l_shank_postprox			QTMMod_l_shank_postdist			QTMMod_l_shank_antdist			QTMMod_l_shank_med			QTMMod_l_ank_lat			QTMMod_l_ank_med			QTMMod_l_foot_heel			QTMMod_l_foot_lat			QTMMod_l_foot_m5			QTMMod_l_foot_m2			QTMMod_l_foot_toe			QTMMod_l_foot_m1			QTMMod_l_foot_med			QTMMod_l_foot_navi			QTMMod_r_hip_grtr			QTMMod_r_thigh_antprox			QTMMod_r_thigh_postprox			QTMMod_r_thigh_postdist			QTMMod_r_thigh_antdist			QTMMod_r_thigh_ant			QTMMod_r_thigh_med			QTMMod_r_thigh_pos			QTMMod_r_knee_lat			QTMMod_r_knee_med			QTMMod_r_shank_antprox			QTMMod_r_shank_postprox			QTMMod_r_shank_postdist			QTMMod_r_shank_antdist			QTMMod_r_shank_med			QTMMod_r_ank_lat			QTMMod_r_ank_med			QTMMod_r_foot_heel			QTMMod_r_foot_lat			QTMMod_r_foot_m5			QTMMod_r_foot_m2			QTMMod_r_foot_toe			QTMMod_r_foot_m1			QTMMod_r_foot_med			QTMMod_r_foot_navi			QTMMod_head_l			QTMMod_head_r			QTMMod_head_front			
		X1	Y1	Z1	X2	Y2	Z2	X3	Y3	Z3	X4	Y4	Z4	X5	Y5	Z5	X6	Y6	Z6	X7	Y7	Z7	X8	Y8	Z8	X9	Y9	Z9	X10	Y10	Z10	X11	Y11	Z11	X12	Y12	Z12	X13	Y13	Z13	X14	Y14	Z14	X15	Y15	Z15	X16	Y16	Z16	X17	Y17	Z17	X18	Y18	Z18	X19	Y19	Z19	X20	Y20	Z20	X21	Y21	Z21	X22	Y22	Z22	X23	Y23	Z23	X24	Y24	Z24	X25	Y25	Z25	X26	Y26	Z26	X27	Y27	Z27	X28	Y28	Z28	X29	Y29	Z29	X30	Y30	Z30	X31	Y31	Z31	X32	Y32	Z32	X33	Y33	Z33	X34	Y34	Z34	X35	Y35	Z35	X36	Y36	Z36	X37	Y37	Z37	X38	Y38	Z38	X39	Y39	Z39	X40	Y40	Z40	X41	Y41	Z41	X42	Y42	Z42	X43	Y43	Z43	X44	Y44	Z44	X45	Y45	Z45	X46	Y46	Z46	X47	Y47	Z47	X48	Y48	Z48	X49	Y49	Z49	X50	Y50	Z50	X51	Y51	Z51	X52	Y52	Z52	X53	Y53	Z53	X54	Y54	Z54	X55	Y55	Z55	X56	Y56	Z56	X57	Y57	Z57	X58	Y58	Z58	X59	Y59	Z59	X60	Y60	Z60	X61	Y61	Z61	X62	Y62	Z62	X63	Y63	Z63	X64	Y64	Z64	X65	Y65	Z65	X66	Y66	Z66	X67	Y67	Z67	X68	Y68	Z68	X69	Y69	Z69	X70	Y70	Z70	X71	Y71	Z71	X72	Y72	Z72	X73	Y73	Z73	X74	Y74	Z74	X75	Y75	Z75	X76	Y76	Z76	X77	Y77	Z77	X78	Y78	Z78	X79	Y79	Z79	X80	Y80	Z80	X81	Y81	Z81	X82	Y82	Z82	X83	Y83	Z83	X84	Y84	Z84	X85	Y85	Z85	X86	Y86	Z86	X87	Y87	Z87	X88	Y88	Z88	X89	Y89	Z89	X90	Y90	Z90	X91	Y91	Z91	X92	Y92	Z92	X93	Y93	Z93	X94	Y94	Z94	X95	Y95	Z95	X96	Y96	Z96	X97	Y97	Z97	X98	Y98	Z98	X99	Y99	Z99	

809	3.232	1915.377685546875	1629.865112304688	-216.2027740478517	1998.410034179688	1546.557495117188	-296.3799438476564	1986.17236328125	1551.322631835938	-131.4348297119142	1892.55029296875	1516.727661132813	-142.7930603027345	1889.053833007812	1503.103637695313	-296.5697326660157	1964.920166015625	1358.165283203125	-380.5637817382814	1936.052490234375	1338.171997070313	-63.94840240478528	2001.907470703125	1306.244262695313	-219.8080902099611	2061.77001953125	1087.784545898438	-214.6966094970704	2095.750244140625	957.3472290039064	-231.8726043701173	1889.813598632812	1391.227294921875	-226.8616638183595	1824.286010742188	1182.968627929688	-245.6402282714845	1832.916381835938	1086.832275390625	-236.3962249755861	2002.990844726562	1300.225952148438	-361.568328857422	1892.851318359375	1328.325439453125	-394.0117187500001	2025.834106445312	1160.994873046875	-405.9778137207032	1919.951782226562	1144.3642578125	-433.1336975097657	2037.380615234375	1046.73779296875	-465.5325317382814	1986.40185546875	1013.307373046875	-391.3809204101564	2067.738525390625	942.1720581054689	-397.2792968750001	2071.046630859375	950.2868041992189	-476.5498352050782	2165.779052734375	846.6344604492189	-415.1616516113282	2133.570556640625	828.3543090820314	-473.379119873047	2186.862548828125	794.3917236328126	-461.6598205566407	2194.598876953125	809.6394042968751	-407.3568115234376	1983.630493164062	1283.7705078125	-70.2409591674806	1857.597045898438	1307.954956054688	-78.69307708740246	1929.667602539062	1142.318603515625	-7.143031597137569	1834.822265625	1149.359252929688	-52.62864303588879	1853.601684570312	1035.506103515625	57.14051818847645	1855.006713867188	1006.950622558594	-41.00132369995129	1875.410278320312	937.6996459960939	17.05642890930164	1813.4794921875	971.0767211914064	65.69489288330067	1854.843383789062	797.5349731445314	86.11428833007801	1782.514892578125	807.2247924804689	92.57162475585926	1796.748291015625	749.1828002929689	121.1720428466796	1847.888305664062	744.1539916992189	105.9010009765624	2037.660034179688	947.7835693359376	-344.9995117187501	2038.586669921875	952.1353149414064	-113.2599258422853	1940.39990234375	972.8752441406251	-49.99663162231457	1938.143676757812	995.1510620117189	-51.29203033447278	1837.953979492188	982.9262695312501	-154.7640228271486	1830.017456054688	982.7860717773439	-206.9452667236329	1834.463256835938	988.5781860351564	-257.7485961914064	1948.120971679688	1000.4228515625	-389.9530639648439	1955.375854492188	953.8560180664064	-392.0106201171876	1936.19873046875	912.0227050781251	-408.914520263672	1919.973388671875	614.2238769531251	-368.5422363281251	1850.669677734375	632.0878295898439	-367.6612854003907	1830.382934570312	540.5374755859376	-344.7535400390626	1903.024047851562	525.5429687500001	-339.4796142578126	1928.847900390625	507.4338989257814	-274.454803466797	1932.395874023438	583.4464111328126	-212.8006439208986	1792.075561523438	610.4222412109376	-281.9540100097657	1857.443603515625	465.1733703613282	-316.7737731933595	1848.23193359375	469.0794677734376	-212.2389984130861	1787.980224609375	335.7894897460939	-328.8952941894532	1727.220458984375	374.3121643066407	-347.4284057617189	1687.048706054688	313.000213623047	-336.8542785644532	1747.895263671875	272.9934387207032	-325.5164184570314	1752.9208984375	308.2875366210939	-213.1118316650392	1635.46728515625	109.0513229370118	-298.3591613769532	1632.265258789062	117.6253967285157	-211.7060394287111	1561.99169921875	99.11848449707041	-265.709930419922	1674.6103515625	54.7783317565919	-296.6826782226564	1738.218505859375	38.74190521240245	-299.1838684082032	1771.017700195312	51.12080383300792	-233.3731384277345	1813.358032226562	44.41687774658214	-246.5041503906251	1732.310791015625	50.28776550292979	-201.3225250244142	1671.429443359375	57.89984512329112	-199.1342620849611	1701.886108398438	104.3487167358399	-248.0524139404298	1984.192626953125	931.5547485351564	-39.74882125854504	2127.9189453125	669.0723266601564	-66.28493499755872	2063.046875	645.0158081054689	-42.57179260253919	2094.26806640625	553.7423095703126	-70.09650421142591	2157.3515625	577.2070922851564	-90.5017013549806	2188.919921875	564.9550781250001	-164.434783935547	2124.314453125	642.5158691406251	-208.6997375488283	1996.103149414062	582.2799072265626	-124.6877746582033	2165.041015625	498.2978515625001	-109.684669494629	2164.115478515625	499.4331054687501	-207.8978729248048	2212.107666015625	387.3344116210939	-95.30210113525405	2142.336181640625	368.994842529297	-80.64476013183607	2163.067138671875	297.1890563964845	-81.40283203125013	2231.40576171875	313.1577148437501	-95.63549804687514	2219.550537109375	351.8360595703126	-197.8247375488283	2274.076416015625	92.02252960205092	-120.8389587402345	2279.259765625	110.2446212768556	-204.9772949218751	2230.08154296875	45.15060806274428	-159.8853302001955	2355.93798828125	79.14172363281264	-119.428810119629	2413.98388671875	87.73926544189467	-113.3234710693361	2427.818115234375	126.9427947998048	-182.922576904297	2476.163330078125	147.625213623047	-183.1144256591798	2432.024169921875	99.75132751464858	-222.9351959228517	2353.58251953125	90.98367309570327	-212.463348388672	2340.656494140625	142.1575622558595	-164.7546386718751	1943.73193359375	1524.83056640625	-296.474822998047	1939.361328125	1534.025146484375	-137.1139373779298	1992.291137695312	1548.940063476563	-213.9073944091798	
810	3.236	1920.322631835938	1629.473510742188	-215.5677795410157	2003.606811523438	1546.298095703125	-295.6218566894532	1991.240234375	1550.917724609375	-130.8004150390626	1897.577758789062	1516.148193359375	-142.3644256591798	1894.250366210938	1502.709106445313	-296.0947875976564	1970.224853515625	1358.162841796875	-380.436004638672	1940.8974609375	1337.238159179688	-63.33061981201184	2007.142578125	1305.852905273438	-219.3690643310548	2064.630615234375	1083.99365234375	-208.5205688476564	2100.917236328125	957.3342895507814	-231.576629638672	1895.110595703125	1390.85888671875	-226.5227966308595	1829.622802734375	1182.612182617188	-245.2200775146486	1838.387084960938	1086.443359375	-236.1956939697267	2008.251220703125	1300.353759765625	-361.6752319335939	1898.447265625	1328.23583984375	-393.9490051269532	2031.850952148438	1160.638671875	-404.6829528808595	1924.67431640625	1144.165283203125	-432.155975341797	2041.831176757812	1046.138549804688	-464.8670654296876	1989.959594726562	1013.616821289063	-390.9434814453126	2072.078857421875	941.5276489257814	-396.655487060547	2075.201904296875	949.6134643554689	-476.0356445312501	2169.653564453125	845.6090087890626	-414.6306152343751	2137.3466796875	827.4863281250001	-472.8890075683595	2190.501953125	793.2737426757814	-461.1595764160157	2198.369873046875	808.3179321289064	-406.937225341797	1988.70361328125	1283.463989257813	-69.87866973876966	1862.93994140625	1307.622314453125	-78.21618652343761	1934.82958984375	1142.785034179688	-6.595143318176388	1840.026733398438	1149.25	-52.05148315429699	1857.402587890625	1035.809936523438	57.41651153564442	1860.168701171875	1006.726501464844	-40.82709121704113	1880.369018554688	937.5568847656251	16.71288871765125	1819.06591796875	970.6686401367189	65.99216461181629	1860.426513671875	797.0981445312501	85.89041137695301	1788.076416015625	806.8142089843751	92.64167022705067	1802.421630859375	748.6219482421876	121.0028381347655	1853.515747070312	743.6282958984376	105.5230255126952	2042.870727539062	946.9367065429689	-344.8269958496095	2044.73291015625	953.7681884765626	-110.2232360839845	1946.391235351562	973.2474365234376	-49.41340255737317	1943.339477539062	994.8211059570314	-50.86870193481457	1843.252319335938	982.4123535156251	-154.6654052734376	1835.32861328125	982.2512817382814	-206.656219482422	1839.916870117188	988.1141357421876	-257.6058959960939	1952.78125	1000.192565917969	-389.6649780273439	1960.93017578125	953.2267456054689	-391.6199645996095	1941.805908203125	911.4050292968751	-408.4945678710939	1925.290283203125	613.2611083984376	-367.0673828125001	1856.501831054688	631.6321411132814	-367.1632080078126	1836.271850585938	539.8696899414064	-344.185760498047	1909.006591796875	525.1894531250001	-339.0978393554689	1934.752075195312	506.8039855957032	-274.0184631347657	1937.369384765625	583.4481811523439	-211.8106231689454	1797.699829101562	609.8053588867189	-281.0809631347657	1863.240966796875	464.3898010253907	-316.457977294922	1853.789184570312	468.3561401367189	-211.1109466552736	1791.933471679688	335.3002014160157	-328.8174438476564	1731.395141601562	374.6921691894532	-346.9136657714845	1690.966796875	314.0619201660157	-336.7831420898439	1751.325805664062	273.2958068847657	-325.5853271484376	1756.862426757812	308.2937011718751	-213.113739013672	1636.964721679688	110.7958068847657	-298.8195800781251	1634.185180664062	119.5825729370118	-211.7247772216798	1563.249755859375	101.8702926635743	-265.793426513672	1675.649169921875	55.35523223876963	-297.3197021484376	1738.345458984375	38.71228027343761	-299.230682373047	1771.346313476562	51.05270385742198	-233.2129211425782	1813.612670898438	44.30690383911144	-246.4038848876954	1732.69140625	50.41735076904308	-201.2692413330079	1671.993041992188	59.29427337646494	-199.4680786132814	1703.224853515625	105.1427612304688	-248.3640899658204	1989.408569335938	931.3352050781251	-39.33965301513684	2133.84814453125	669.0136718750001	-66.14023590087903	2068.710205078125	644.5817260742189	-42.77204513549817	2100.295654296875	553.6336059570314	-70.48673248291028	2163.7841796875	577.5637207031251	-90.50657653808607	2194.83935546875	565.6510620117189	-164.6583099365236	2129.990234375	641.2031250000001	-208.4153747558595	2002.497924804688	582.1458129882814	-124.8365707397462	2170.697509765625	498.2796630859376	-110.0267257690431	2169.90771484375	499.5258178710939	-207.8892822265626	2216.547119140625	385.7977905273439	-95.84035491943374	2146.604736328125	368.4670715332032	-81.11295318603528	2166.240234375	296.3483276367189	-81.93043518066419	2234.80224609375	311.3138122558595	-96.31586456298842	2223.2880859375	350.2525634765626	-198.3306579589845	2275.5166015625	90.8993072509767	-121.3638610839845	2280.01123046875	108.9081878662111	-205.7367095947267	2230.444091796875	45.16099166870131	-159.9015350341798	2357.10693359375	77.20124053955092	-119.8145294189455	2415.457275390625	84.7483062744142	-114.4190826416017	2429.3349609375	123.6727905273439	-184.335662841797	2477.95166015625	143.6976776123048	-184.7905273437501	2432.804931640625	96.32830047607436	-223.994842529297	2354.30859375	88.47985076904311	-213.2118530273439	2342.283935546875	139.4842529296876	-165.9603118896486	1948.928588867188	1524.503540039063	-295.8583068847657	1944.409057617188	1533.532958984375	-136.5824279785157	1997.423583984375	1548.60791015625	-213.2111358642579	
811	3.24	1925.353515625	1629.095092773438	-214.8981475830079	2008.66259765625	1546.195190429688	-295.137908935547	1996.275634765625	1550.627807617188	-130.3333892822267	1902.863891601562	1515.82958984375	-141.6185150146486	1899.391723632812	1502.35302734375	-295.5745544433595	1975.43310546875	1357.63232421875	-379.4454650878907	1946.703369140625	1337.73779296875	-63.11423492431653	2012.486694335938	1305.610961914063	-218.8469085693361	2073.57666015625	1090.07568359375	-217.0155792236329	2106.198974609375	957.2133178710939	-231.0455474853517	1900.179931640625	1390.476684570313	-225.6017913818361	1835.080444335938	1182.226318359375	-244.8412170410157	1843.823608398438	1086.3125	-235.9837799072267	2012.744873046875	1299.923217773438	-360.1069946289064	1903.486938476562	1327.857543945313	-393.1958923339845	2036.193603515625	1160.357055664063	-405.6103820800782	1929.254150390625	1144.081176757813	-431.3694763183595	2046.551879882812	1045.692993164063	-464.6160278320314	1994.54541015625	1013.421569824219	-390.2973022460939	2076.341064453125	940.8966064453126	-396.0809020996095	2079.274169921875	948.9484252929689	-475.5544738769532	2174.771484375	844.8771362304689	-415.0168457031251	2140.96435546875	826.5538330078126	-472.5359497070314	2194.029296875	792.1011962890626	-460.7764282226564	2201.988037109375	807.4831542968751	-406.887420654297	1994.099975585938	1283.133911132813	-69.39588165283216	1868.562744140625	1307.295288085938	-77.4075164794923	1940.26416015625	1142.091552734375	-6.42986774444592	1845.385620117188	1149.269409179688	-51.40491867065441	1862.887573242188	1035.427856445313	57.71023941040028	1865.360717773438	1006.517639160156	-40.66852188110363	1885.3798828125	936.1614990234376	16.08795738220203	1824.645874023438	970.2006225585939	66.33317565917957	1866.051391601562	796.6063232421876	85.6800079345702	1793.724365234375	806.2435913085939	92.63884735107411	1808.185791015625	748.0825805664064	120.8151855468749	1859.296630859375	743.0747680664064	105.1373748779296	2048.450439453125	946.4962768554689	-344.465301513672	2049.973388671875	953.2970581054689	-110.1721038818361	1951.739501953125	972.9743041992189	-48.93250274658215	1948.652221679688	994.5214843750001	-50.39290618896496	1848.37451171875	982.3701782226564	-154.6697235107423	1841.125244140625	981.6460571289064	-206.3948516845704	1845.345581054688	987.7700805664064	-257.3901672363282	1958.026489257812	999.8704833984376	-389.4224853515626	1966.288696289062	952.8784179687501	-391.2803955078126	1948.1083984375	910.7269897460939	-408.0017395019532	1931.554443359375	613.2428588867189	-367.3436584472657	1862.198486328125	630.8950805664064	-366.4597167968751	1842.13671875	539.2493286132814	-343.6663818359376	1915.100952148438	524.6321411132814	-338.5160522460939	1940.774780273438	506.1763916015626	-273.5107727050782	1943.322509765625	582.9622802734376	-211.1837768554689	1804.9736328125	608.7630615234376	-280.3931884765626	1869.186157226562	463.6450500488282	-316.2232971191407	1860.14453125	467.621063232422	-210.9404754638673	1796.253051757812	335.1679992675782	-328.8460388183595	1736.095947265625	375.3565063476564	-346.8046875000001	1694.9794921875	315.1841125488282	-336.6540527343751	1754.845947265625	273.6425170898439	-325.6783447265626	1760.914672851562	308.3184204101564	-213.0587310791017	1638.277221679688	112.3826065063478	-299.0816040039064	1635.7724609375	121.4707412719728	-212.1643981933595	1564.513671875	104.6034927368165	-266.0726623535157	1676.728515625	55.92857360839854	-298.0124511718751	1738.48291015625	38.76169967651378	-299.1791381835939	1771.584716796875	50.96989440917979	-233.2524414062501	1813.777709960938	44.15257263183605	-246.3795013427736	1733.184814453125	50.64206695556651	-201.2671966552736	1672.751831054688	60.48818206787119	-199.9436340332032	1704.75146484375	106.0216140747071	-248.6882476806642	1994.686645507812	931.1274414062501	-38.93498611450207	2139.76708984375	668.8654785156251	-66.06923675537122	2074.633544921875	644.4697875976564	-42.84952163696302	2106.057861328125	553.3750000000001	-70.90106201171888	2169.870361328125	577.6994018554689	-90.92229461669935	2200.21240234375	565.6453857421876	-164.9551391601564	2135.549560546875	641.4391479492189	-208.317108154297	2008.229370117188	581.8447265625001	-124.7764358520509	2176.32275390625	498.1660156250001	-110.4435882568361	2175.659423828125	499.4331665039064	-207.7221527099611	2220.948486328125	384.2805175781251	-96.22615051269545	2150.771240234375	367.9460754394532	-81.42250061035169	2169.41796875	295.4851989746095	-82.50942230224622	2238.20068359375	309.5943908691407	-96.92727661132827	2227.05322265625	348.6809997558595	-198.8820800781251	2277.46630859375	89.47165679931655	-122.0760803222658	2281.44775390625	107.5074005126955	-206.3137664794923	2231.13037109375	45.49800491333021	-159.9562072753908	2358.450439453125	74.98322296142592	-121.0084533691408	2416.798828125	82.04314422607436	-115.6869506835939	2431.704345703125	121.632537841797	-185.2591705322267	2479.823486328125	140.0958862304689	-186.4152984619142	2433.824951171875	93.19823455810561	-225.161575317383	2355.33935546875	86.3879547119142	-214.0997467041017	2343.722412109375	137.0739135742189	-166.967239379883	1954.027099609375	1524.274169921875	-295.3562316894532	1949.56982421875	1533.228637695313	-135.9759521484376	2002.469116210938	1548.411499023438	-212.7356414794923	
812	3.244	1930.263793945312	1628.80419921875	-214.3013458251954	2013.853881835938	1546.04296875	-294.5057373046876	2001.33740234375	1550.2294921875	-129.7571563720704	1908.00390625	1515.381591796875	-141.1045379638673	1904.570434570312	1502.067138671875	-294.9692993164064	1980.688598632812	1357.631591796875	-379.2908325195314	1951.601196289062	1336.681030273438	-62.52809906005871	2017.742309570312	1305.46533203125	-218.3204803466798	2076.76513671875	1085.453857421875	-210.193084716797	2111.387451171875	956.9141845703126	-230.6082763671876	1905.714477539062	1390.158325195313	-225.5110015869142	1840.554931640625	1181.73388671875	-244.642791748047	1849.50244140625	1085.901733398438	-235.5834045410157	2018.697021484375	1299.25732421875	-359.0628662109376	1908.941650390625	1327.7705078125	-392.9556884765626	2042.330200195312	1160.028564453125	-404.2170715332032	1935.072021484375	1143.904174804688	-430.7852172851564	2050.99951171875	1045.121948242188	-464.1576538085939	1999.136962890625	1013.250244140625	-389.5679321289064	2080.635498046875	940.3211669921876	-395.4969787597657	2083.330322265625	948.2316284179689	-475.0381469726564	2178.96337890625	843.4478149414064	-414.5046691894532	2143.98193359375	825.7130126953126	-472.1609802246095	2197.5322265625	790.9012451171876	-460.3374328613282	2205.602783203125	806.2316284179689	-406.399627685547	1999.21044921875	1282.825805664063	-69.13081359863294	1873.912231445312	1307.082641601563	-76.83232879638683	1945.748046875	1142.108276367188	-6.171576976776242	1850.649047851562	1149.161499023438	-50.86561203002941	1870.651489257812	1034.039306640625	57.89575195312489	1870.27001953125	1006.0986328125	-40.67885589599621	1891.304321289062	936.8687744140626	17.04981994628895	1830.189697265625	969.8339233398439	66.71770477294911	1871.757690429688	796.1876220703126	85.43364715576161	1799.440063476562	805.7926635742189	92.73349761962879	1814.063598632812	747.4938964843751	120.6662216186522	1865.087768554688	742.6030883789064	104.7432937622069	2054.162109375	946.0872802734376	-343.951141357422	2054.880615234375	952.5362548828126	-112.1665344238283	1956.509643554688	972.0738525390626	-48.59227752685559	1954.143188476562	994.2791748046876	-49.84011459350598	1854.386596679688	981.7714843750001	-154.059539794922	1846.605712890625	981.3474731445314	-206.1796722412111	1851.38134765625	987.2955322265626	-256.8813781738282	1963.856567382812	999.2349243164064	-388.9990234375001	1971.971923828125	952.3899536132814	-390.9884643554689	1953.959838867188	910.3666992187501	-407.6431579589845	1937.449829101562	612.7642822265626	-366.8580627441407	1868.048828125	630.3690795898439	-365.7122192382814	1848.21728515625	538.6893310546876	-343.2334289550782	1920.982177734375	524.0401000976564	-338.1848449707032	1946.8740234375	505.597137451172	-273.1433410644532	1949.416015625	582.5352172851564	-210.7399902343751	1813.072143554688	607.2940673828126	-279.6278381347657	1875.173950195312	462.8959350585939	-315.9207763671876	1866.290771484375	466.886199951172	-210.5762939453126	1800.637939453125	335.081268310547	-328.8567504882814	1740.955810546875	375.9634094238282	-346.7095642089845	1699.115600585938	316.3097229003907	-336.3907470703126	1758.408447265625	273.9782104492189	-325.8149719238282	1765.09423828125	308.3843994140626	-213.0285491943361	1639.653564453125	114.2174606323243	-299.3533325195314	1637.486572265625	123.3512191772462	-212.3411865234376	1565.301879882812	107.423683166504	-265.5048828125001	1677.87548828125	56.87490463256846	-298.7326660156251	1738.708984375	38.83017349243175	-299.2357482910157	1771.663452148438	50.71676254272472	-233.4221801757814	1813.758056640625	43.85491180419933	-246.4404907226564	1733.619506835938	50.95033264160167	-201.5312805175782	1673.903686523438	61.75502395629893	-200.2347564697267	1706.313720703125	106.9123992919923	-249.0886230468751	2000.046997070312	930.9497680664064	-38.51717376708996	2145.52392578125	668.6494750976564	-66.0036544799806	2080.773193359375	644.6257324218751	-42.88406372070325	2112.145751953125	553.5924682617189	-71.00542449951185	2175.90185546875	577.7439575195314	-91.08924865722669	2205.94921875	565.6937255859376	-165.2421112060548	2141.157958984375	641.6218261718751	-208.1737213134767	2013.532958984375	581.6595458984376	-124.1610794067384	2181.87255859375	498.0723266601564	-110.9030227661134	2181.21826171875	499.1976928710939	-207.5883636474611	2225.184326171875	382.7546997070314	-96.65602874755874	2154.753662109375	367.3423156738282	-82.08575439453138	2172.281494140625	294.5309448242189	-83.07510375976575	2241.314453125	307.7000122070314	-97.18408203125014	2230.9072265625	347.305145263672	-199.1998138427736	2279.47314453125	88.41465759277358	-122.5781555175783	2283.07568359375	106.1825561523439	-206.9724731445314	2232.228271484375	46.18960189819349	-159.8506469726564	2360.072021484375	73.20882415771499	-121.7866210937501	2418.5009765625	79.58533477783217	-116.6666793823244	2432.799560546875	118.0126190185548	-186.9143218994142	2481.851806640625	136.5655822753908	-187.9462127685548	2435.135986328125	90.28122711181655	-226.5318450927736	2356.727294921875	84.06066131591811	-214.8073883056642	2344.655029296875	133.7275390625001	-168.1501617431642	1959.212158203125	1524.055053710938	-294.737518310547	1954.670654296875	1532.805541992188	-135.4308471679689	2007.595703125	1548.13623046875	-212.1314392089845	
